PathFileType	4	(X/Y/Z)	Apose_0-49.trc
DataRate	CameraRate	NumFrames	NumMarkers	Units	OrigDataRate	OrigDataStartFrame	OrigNumFrames
30	30	5	22	m	30	19	49
Frame#	Time	Hip			RHip			RKnee			RAnkle			RBigToe			RSmallToe			RHeel			LHip			LKnee			LAnkle			LBigToe			LSmallToe			LHeel			Neck			Head			Nose			RShoulder			RElbow			RWrist			LShoulder			LElbow			LWrist		
		X1	Y1	Z1	X2	Y2	Z2	X3	Y3	Z3	X4	Y4	Z4	X5	Y5	Z5	X6	Y6	Z6	X7	Y7	Z7	X8	Y8	Z8	X9	Y9	Z9	X10	Y10	Z10	X11	Y11	Z11	X12	Y12	Z12	X13	Y13	Z13	X14	Y14	Z14	X15	Y15	Z15	X16	Y16	Z16	X17	Y17	Z17	X18	Y18	Z18	X19	Y19	Z19	X20	Y20	Z20	X21	Y21	Z21	X22	Y22	Z22
20	0.6666666666666666	0.6653610618078987	0.9002785264751184	0.3182506403096619	0.661754641506958	0.865091489826976	0.22803548749814562	0.6559723094692682	0.4942880189930449	0.2264735536888853	0.7016143932915943	0.11118626571064105	0.23332622280855483	0.5233384559800095	0.029654452151450964	0.221676721515429	0.5670159384802242	0.020925357302022822	0.16290565867770967	0.7392497079374148	0.03847570185661844	0.24485888262125483	0.6771775313734288	0.8642431044291995	0.41172364708562714	0.6813077887137581	0.49498544099533914	0.40858253340365913	0.7176463236984576	0.11184392521007394	0.4037101555850246	0.5507285686938748	0.024383739779466722	0.41820705048987517	0.5826435968783935	0.023421557975239617	0.4750563264588913	0.7717222483593432	0.03492688014677523	0.3986811356950018	0.65585858976106	1.4919462086689992	0.32828974526065324	0.6279125596750654	1.7189236996012411	0.3207175092906571	0.5144127813623144	1.6035786278974367	0.33288887928051625	0.6843576376497196	1.4218453802034243	0.14311693829617023	0.7342432131160213	1.3296853140341525	-0.0869806671566063	0.6911383720397083	1.3284084033814358	-0.3390125494746852	0.688468403229952	1.4222738203651315	0.4980690005134053	0.7058920963351045	1.3271578738020948	0.7319505971663527	0.6862851135714668	1.3262026420804882	0.9838873154121589
21	0.7	0.6650156189976006	0.9001291318176783	0.3180973651438205	0.6610092004344917	0.8653803319985258	0.2278181452661575	0.6550151559047988	0.4944157900841516	0.2263002012779939	0.7011074756260157	0.1113315774890752	0.23334223972680315	0.5234561235409002	0.029628396288458505	0.22128041310997576	0.5675215015305394	0.02057854130124235	0.16281692877792348	0.7394753816947065	0.03840770410773109	0.24462599584759737	0.6768102958294754	0.8644950031956101	0.4114917971206009	0.6813524927562615	0.49529316889541525	0.4084010858210901	0.7180492065504734	0.11147850504124504	0.4038314266954965	0.5505935888713148	0.024472111081704422	0.41800575381324695	0.5823957783163851	0.023498577169545995	0.47517084679510246	0.7717884587621733	0.03463151367790408	0.39851222421565247	0.6554181163703142	1.4917517105625453	0.32798560201046806	0.6266509494919065	1.7195662251212516	0.3211152332024791	0.5162550046067753	1.6033003654595794	0.3309462300788028	0.6840006197000155	1.4214899687005815	0.1407045046003286	0.7343420626712784	1.329948383683172	-0.08654896997852547	0.6901903679274408	1.3282986110658443	-0.33892063427296093	0.6870220419933045	1.422865728135601	0.49687091911904135	0.7051946855303618	1.327131462653532	0.7311811053679246	0.685886999685474	1.3262937564593642	0.9841956818058581
22	0.7333333333333333	0.6647981722603973	0.8999498809274215	0.3179608923006817	0.6603434809357616	0.8655469279237962	0.2275847870065201	0.6534924295439473	0.4947750670512163	0.22612803014023677	0.7005837547282664	0.11158750676213282	0.23341823731009131	0.5236016375738176	0.029410780628169115	0.22102726137671713	0.5682210682171989	0.02009486589711127	0.1628428406405017	0.739900153078211	0.03807363737295538	0.24413067931561408	0.6764685901054607	0.8646957514683762	0.4111867688955747	0.6809287861073158	0.4955598452676097	0.40806893245406844	0.7184493683577582	0.1111093766222168	0.4039674374846438	0.5504354485103131	0.024555745999458468	0.41777382271704194	0.5819472312826326	0.023729938164838014	0.47516031296261063	0.771759962050184	0.03443230268541822	0.3982902059302254	0.6550489517534054	1.491474992473699	0.32763855130937797	0.625845608820916	1.7203742997414397	0.3213943249988549	0.518020471174768	1.6030611841033944	0.3290391952808933	0.6842688143065739	1.4212760367186068	0.1389250836494726	0.7346058210933748	1.3302274914105816	-0.08624537025379228	0.688695087417596	1.3278729677641747	-0.33880679328183533	0.6854332229277362	1.423433840022502	0.4958473751951571	0.7044649180391538	1.327063420756622	0.7304919420788203	0.6855290775659177	1.3264323037123542	0.9844747908275686
23	0.7666666666666667	0.6646466865657787	0.8997286957763492	0.3178132088035838	0.6598355404133079	0.8654901714362712	0.22728455584016322	0.6520283599594191	0.495489416397912	0.22599691450236334	0.7001365671319526	0.11196044782681637	0.23349308104424066	0.5238360699750743	0.028943801604975904	0.22100649502792952	0.5690317310531702	0.01952624954995253	0.16294295889586763	0.7405961858749811	0.03746851143330331	0.2433506441125595	0.6761441317781227	0.8647305656500858	0.4108030060972703	0.6802683086729397	0.4957274002685498	0.4075699268210832	0.7187367709231205	0.11081371197643328	0.4040313475187279	0.5501761235780174	0.02470559847232549	0.4175753338855814	0.5814269452581774	0.024053236704371476	0.47497958495894826	0.7716205933671427	0.034299961052078255	0.39798126788610805	0.6548546288454867	1.491155262095469	0.3272491749472085	0.6255422425484625	1.7211398011249854	0.32163718120018936	0.5190710916744383	1.6029744714124887	0.32757953082637054	0.6845620708288305	1.4210595605912013	0.13830778102463542	0.7349977762225198	1.330470558072636	-0.08617925121263716	0.6873454865352877	1.3274585696959618	-0.3388224895898416	0.6838689371439911	1.4238186198639093	0.4951472345859528	0.703719024580078	1.3269471333562064	0.7300753576536929	0.6850737797023768	1.3266540651208545	0.9846071075582168
24	0.8	0.6644572522059882	0.8994685354284715	0.3175857646854282	0.659467401022081	0.8651339447167465	0.2269217418147603	0.6512703983269587	0.49639803728084575	0.22589291116384144	0.6998076100163214	0.11244447842439735	0.2335116039833842	0.5241816887379338	0.028313616922259296	0.22123975729673032	0.5697770966161926	0.01894929428671717	0.16303594105110028	0.7415034478107952	0.0366926507622442	0.24235159816287977	0.6758008466532466	0.8644611499582335	0.4103234128178503	0.6795588854716164	0.495753758907002	0.4069630545617874	0.7188254947361808	0.11060858144625801	0.40396775418425207	0.5498160551764373	0.024926897953775753	0.41752047736495773	0.5809472057565589	0.024377355742219033	0.4746650959013462	0.7713735183541357	0.03424970040467391	0.39760721162001594	0.6548563361224776	1.4908617652040816	0.32677541268461197	0.6257403751278509	1.7215367917711877	0.3218426185327318	0.5192672294252376	1.6030871865378329	0.3266675361180838	0.6843444340970714	1.4207511582984793	0.1390934289790642	0.7354653832126608	1.3306449202586876	-0.08634695654056744	0.6865865750078534	1.3272409054401713	-0.33896644198085324	0.6822348220439274	1.4239613621880893	0.4946853408464782	0.7029417414160305	1.3268017372929968	0.730011727311006	0.6843469931686241	1.3269790585974597	0.9845116267681069
